<svg xmlns="http://www.w3.org/2000/svg" width="50" height="50" viewBox="0 0 50 50"><g transform="translate(425 -413)"><path d="M25,1a24.007,24.007,0,0,0-9.342,46.114A24.006,24.006,0,0,0,34.342,2.886,23.849,23.849,0,0,0,25,1m0-1A25,25,0,1,1,0,25,25,25,0,0,1,25,0Z" transform="translate(-425 413)" fill="#818181"/><path d="M4,2A2,2,0,0,0,2,4V20a2,2,0,0,0,2,2H28a2,2,0,0,0,2-2V4a2,2,0,0,0-2-2H4M4,0H28a4,4,0,0,1,4,4V20a4,4,0,0,1-4,4H4a4,4,0,0,1-4-4V4A4,4,0,0,1,4,0Z" transform="translate(-416 426)" fill="#818181"/><path d="M-347.894,447.354a1,1,0,0,1-.551-.166l-13.819-9.127a1,1,0,0,1-.283-1.386,1,1,0,0,1,1.386-.283l13.268,8.763,13.268-8.763a1,1,0,0,1,1.386.283,1,1,0,0,1-.283,1.386l-13.819,9.127A1,1,0,0,1-347.894,447.354Z" transform="translate(-52.106 -8)" fill="#818181"/></g></svg>