<svg xmlns="http://www.w3.org/2000/svg" viewBox="0 0 50 50"><g fill="#818181"><path d="M-400 414a24.007 24.007 0 0 0-9.342 46.114 24.006 24.006 0 0 0 18.684-44.228A23.849 23.849 0 0 0-400 414m0-1a25 25 0 1 1-25 25 25 25 0 0 1 25-25z" transform="translate(425 -413)"/><path d="M-412 428a2 2 0 0 0-2 2v16a2 2 0 0 0 2 2h24a2 2 0 0 0 2-2v-16a2 2 0 0 0-2-2h-24m0-2h24a4 4 0 0 1 4 4v16a4 4 0 0 1-4 4h-24a4 4 0 0 1-4-4v-16a4 4 0 0 1 4-4z" transform="translate(425 -413)"/><path d="M-400 439.354a1 1 0 0 1-.551-.166l-13.819-9.127a1 1 0 0 1-.283-1.386 1 1 0 0 1 1.386-.283l13.268 8.763 13.268-8.763a1 1 0 0 1 1.386.283 1 1 0 0 1-.283 1.386l-13.819 9.127a1 1 0 0 1-.553.166z" transform="translate(425 -413)"/></g></svg>