<svg xmlns="http://www.w3.org/2000/svg" width="50" height="50" viewBox="0 0 50 50"><g transform="translate(370 -413)"><path d="M25,1a24.007,24.007,0,0,0-9.342,46.114A24.006,24.006,0,0,0,34.342,2.886,23.849,23.849,0,0,0,25,1m0-1A25,25,0,1,1,0,25,25,25,0,0,1,25,0Z" transform="translate(-370 413)" fill="#818181"/><path d="M4,2A2,2,0,0,0,2,4V24a2,2,0,0,0,2,2H24a2,2,0,0,0,2-2V4a2,2,0,0,0-2-2H4M4,0H24a4,4,0,0,1,4,4V24a4,4,0,0,1-4,4H4a4,4,0,0,1-4-4V4A4,4,0,0,1,4,0Z" transform="translate(-359 424)" fill="#818181"/><path d="M7.5,2A5.5,5.5,0,1,0,13,7.5,5.506,5.506,0,0,0,7.5,2m0-2A7.5,7.5,0,1,1,0,7.5,7.5,7.5,0,0,1,7.5,0Z" transform="translate(-352 431)" fill="#818181"/><rect width="4" height="4" rx="2" transform="translate(-339 428)" fill="#818181"/></g></svg>