<svg xmlns="http://www.w3.org/2000/svg" width="50" height="50" viewBox="0 0 50 50"><g transform="translate(-155 -378)"><path d="M25,1a24.007,24.007,0,0,0-9.342,46.114A24.006,24.006,0,0,0,34.342,2.886,23.849,23.849,0,0,0,25,1m0-1A25,25,0,1,1,0,25,25,25,0,0,1,25,0Z" transform="translate(155 378)" fill="#818181"/><path d="M9.57,25.829l4.883-1.857.407.016c.212.008.428.012.64.012C22.944,24,29,19.065,29,13S22.944,2,15.5,2,2,6.934,2,13a9.466,9.466,0,0,0,1.848,5.547,12.736,12.736,0,0,0,5.038,4.04l1.884.868-1.2,2.375s0,0,0,0m-.014,2.006a2.006,2.006,0,0,1-1.771-2.908L8.05,24.4C3.252,22.193,0,17.915,0,13,0,5.82,6.94,0,15.5,0S31,5.82,31,13,24.061,26,15.5,26q-.36,0-.717-.014l-4.5,1.712A2.035,2.035,0,0,1,9.556,27.835Z" transform="translate(165 389)" fill="#818181"/><text transform="translate(170.5 405)" fill="#818181" font-size="9" font-family="Helvetica"><tspan x="0" y="0">LINE</tspan></text><path d="M.436-6.706H1.81v5.687H5.08V.25H.436Zm.875.5H.936V-.25H4.58V-.519H1.31Zm4.329-.5H7.022V.25H5.639Zm.883.5H6.139V-.25h.383Zm1.419-.5H9.363L12.235-2.1V-6.706h1.331V.25H12.2L9.276-4.363V.25H7.941Zm1.144.5H8.441V-.25h.335V-6.087l3.7,5.837h.592V-6.206h-.331V-.353Zm5.439-.5h5.207v1.291H15.877v1.46h3.564v1.247H15.877v1.688H19.8V.25H14.524Zm4.707.5H15.024V-.25H19.3V-.519h-3.92V-3.208h3.564v-.247H15.377v-2.46h3.854Z" transform="translate(170.5 405)" fill="#818181"/></g></svg>